<?xml version="1.0" encoding="utf-8"?>
<!-- Generator: Adobe Illustrator 25.0.1, SVG Export Plug-In . SVG Version: 6.00 Build 0)  -->
<svg version="1.1" xmlns="http://www.w3.org/2000/svg" xmlns:xlink="http://www.w3.org/1999/xlink" x="0px" y="0px"
	 viewBox="0 0 1920 1080" style="enable-background:new 0 0 1920 1080;" xml:space="preserve">
<style type="text/css">
	.st0{display:none;}
	.st1{display:inline;opacity:0.95;}
	.st2{fill:#0080FF;}
	.st3{fill:#FFFFFF;stroke:#000000;stroke-width:4;stroke-miterlimit:10;}
	.st4{fill:#2E3192;stroke:#000000;stroke-width:4;stroke-miterlimit:10;}
	.st5{fill:#777777;stroke:#000000;stroke-width:4;stroke-miterlimit:10;}
	.st6{fill:none;}
	.st7{fill:#18AA0C;}
	.st8{font-family:'Dubai-Bold';}
	.st9{font-size:77px;}
	.st10{opacity:0.95;fill:#2CA4E3;}
	.st11{font-size:72px;}
	.st12{fill:#0087C8;}
	.st13{fill:none;stroke:#FFFFFF;stroke-width:10;stroke-linecap:round;stroke-linejoin:round;}
	.st14{fill:#FFFFFF;}
	.st15{fill:#FB8E28;}
</style>
<g id="base" class="st0">
	<g class="st1">
		<rect class="st2" width="1920" height="1080"/>
	</g>
</g>
<g id="Layer_3">
	<path class="st3" d="M1384,380c13.93,1.3,34.45,5.14,56,17c8.72,4.8,16.02,10.03,22,15l1.68,6.54L1470,465l5,60l3,94l-2,113.17V767
		c-5.29,0.86-13.26,2.04-23,3c-39.22,3.89-69.58,0.62-82-1c-6.87-0.9-16.51-2.36-28-4.83v-9.87V692l4-122l9-120l6.82-69.15L1384,380
		z"/>
	<path class="st4" d="M1305.5,468.5c-7.73,4.21-18.06,10.63-29,20c-21.42,18.36-32.84,37.51-37,45c-12.16,21.9-16.05,40.98-17,46
		c-1.44,7.6-5.23,30.85,1,60c7.29,34.14,24.1,56.61,30,64c18.66,23.37,39.2,34.9,45,38c17.72,9.47,34.05,13.3,45,15L1343,732
		c-3.99-0.94-11.07-2.97-17.5-5.5c-20.03-7.88-32.77-19.3-39-25c-7.06-6.45-20.29-18.78-30-39c-16.3-33.96-11.1-66.09-9-78
		c4.48-25.44,14.87-42.57,17-46c16.82-27.1,39.94-40.51,51-46L1348,562l2-34l-20.5-41.5l24.5-6.5l2-27l-23.5,5.5l-13,5l-14-25
		c-7.15-9.47-9.26-18.18-10-23c-0.79-5.17-1.78-11.61,2-16c1.96-2.27,4.58-3.29,9-5c5.63-2.18,7.29-1.66,11-3
		c6.78-2.46,10.7-7.64,14-12c2.29-3.03,6.42-8.61,8-17c0.58-3.09,2.78-14.74-4-23c-1.31-1.59-4.13-5.03-8-5
		c-5.7,0.04-9.35,7.58-10,9c-2.51,5.49-1.83,10.66-1,17c1.11,8.49,3.49,12.64,2,20c-0.36,1.79-0.88,3.41-2,5
		c-2.62,3.71-7.93,6.43-12,5c-2.75-0.97-4.35-3.63-6-8c-3.61-9.57-3.74-17.61-4-28c-0.39-15.24-0.67-19.84-1-24
		c-0.56-7.02-1.33-13.45-4-21c-2.81-7.94-5.43-10.65-7-12c-1.11-0.96-3.4-2.71-12-5c-8.66-2.31-21-2-25-1c-1.5,0.37-0.95,3.1-1,4
		c-0.04,0.82-0.16,4.62,2,7c2.17,2.4,4.6,1.09,12,3c4.38,1.13,6.85,1.81,8,4c0.92,1.76,0.58,3.71,0,7c-0.59,3.36-0.89,5.05-2,6
		c-2.57,2.21-6.27-1.29-14-2c-5.51-0.5-4.68,1.18-16,2c-6.15,0.45-8.56,0.11-10,2c-1.71,2.24-1.28,6.6,1,9c2.66,2.8,6.25,1.29,18,2
		c10.08,0.61,12.68,2.03,14,4c1.27,1.89,1.12,3.95,1,6c-1.09,18.56,1.21,18.51-1,28c-1.63,6.99-4.02,11.95-5,14
		c-13.21,27.65-15.23,37.54-34,79c-24,53-31,66-39,87c-2.09,5.48,0.43,11.95,0,27c-0.76,26.51-3.38,39.87,0,41
		c0.71,0.24,3.35,0.49,12-14c13.03-21.85,17.09-39.3,23-56c6.41-18.13,7.38-13.82,19-41c17.21-40.26,29.34-83.09,34-82
		c0.93,0.22,0.9,2.03,4,5c1.16,1.11,3.19,3.06,6,4c4.83,1.61,7.16-1.37,11,0c2.13,0.76,3.42,2.39,6,7c2.26,4.04,4.51,10.02,8,17
		C1303.5,463.5,1305.5,468.5,1305.5,468.5z"/>
	<path class="st4" d="M1475,528c2.43,2.59,6.64,6.28,10,11c3.63,5.1,11.98,17.05,16,34c2.15,9.07,2.1,15.71,2,29
		c-0.07,9.1-0.15,19.94-3,34c-2.35,11.61-5.4,25.88-16,40c-1.96,2.61-4.75,5.65-6,7l-1,37c8.78-7.71,23.51-21.73,34-41
		c2.5-4.59,11.65-21.97,16-47c1.82-10.49,5.45-32.62-1-60c-0.98-4.14-5.54-22.69-18-43c-1.52-2.47-7.74-12.46-18-24
		c-5.57-6.27-12.79-12.26-17-16L1475,528z"/>
	<path class="st3" d="M484,376.38c13.93,1.3,34.45,5.14,56,17c8.72,4.8,16.02,10.03,22,15l1.68,6.54l6.32,46.46l5,60l3,94l-2,113.17
		v34.83c-5.29,0.86-13.26,2.04-23,3c-39.22,3.89-69.58,0.62-82-1c-6.87-0.9-16.51-2.36-28-4.83v-9.87v-62.3l4-122l9-120l6.82-69.15
		L484,376.38z"/>
	<path class="st5" d="M405.5,464.88c-7.73,4.21-18.06,10.63-29,20c-21.42,18.36-32.84,37.51-37,45c-12.16,21.9-16.05,40.98-17,46
		c-1.44,7.6-5.23,30.85,1,60c7.29,34.14,24.1,56.61,30,64c18.66,23.37,39.2,34.9,45,38c17.72,9.47,34.05,13.3,45,15l-0.5-24.5
		c-3.99-0.94-11.07-2.97-17.5-5.5c-20.03-7.88-32.77-19.3-39-25c-7.06-6.45-20.29-18.78-30-39c-16.3-33.96-11.1-66.09-9-78
		c4.48-25.44,14.87-42.57,17-46c16.82-27.1,39.94-40.51,51-46l32.5,69.5l2-34l-20.5-41.5l24.5-6.5l2-27l-23.5,5.5l-13,5l-14-25
		c-7.15-9.47-9.26-18.18-10-23c-0.79-5.17-1.78-11.61,2-16c1.96-2.27,4.58-3.29,9-5c5.63-2.18,7.29-1.66,11-3
		c6.78-2.46,10.7-7.64,14-12c2.29-3.03,6.42-8.61,8-17c0.58-3.09,2.78-14.74-4-23c-1.31-1.59-4.13-5.03-8-5
		c-5.7,0.04-9.35,7.58-10,9c-2.51,5.49-1.83,10.66-1,17c1.11,8.49,3.49,12.64,2,20c-0.36,1.79-0.88,3.41-2,5
		c-2.62,3.71-7.93,6.43-12,5c-2.75-0.97-4.35-3.63-6-8c-3.61-9.57-3.74-17.61-4-28c-0.39-15.24-0.67-19.84-1-24
		c-0.56-7.02-1.33-13.45-4-21c-2.81-7.94-5.43-10.65-7-12c-1.11-0.96-3.4-2.71-12-5c-8.66-2.31-21-2-25-1c-1.5,0.37-0.95,3.1-1,4
		c-0.04,0.82-0.16,4.62,2,7c2.17,2.4,4.6,1.09,12,3c4.38,1.13,6.85,1.81,8,4c0.92,1.76,0.58,3.71,0,7c-0.59,3.36-0.89,5.05-2,6
		c-2.57,2.21-6.27-1.29-14-2c-5.51-0.5-4.68,1.18-16,2c-6.15,0.45-8.56,0.11-10,2c-1.71,2.24-1.28,6.6,1,9c2.66,2.8,6.25,1.29,18,2
		c10.08,0.61,12.68,2.03,14,4c1.27,1.89,1.12,3.95,1,6c-1.09,18.56,1.21,18.51-1,28c-1.63,6.99-4.02,11.95-5,14
		c-13.21,27.65-15.23,37.54-34,79c-24,53-31,66-39,87c-2.09,5.48,0.43,11.95,0,27c-0.76,26.51-3.38,39.87,0,41
		c0.71,0.24,3.35,0.49,12-14c13.03-21.85,17.09-39.3,23-56c6.41-18.13,7.38-13.82,19-41c17.21-40.26,29.34-83.09,34-82
		c0.93,0.22,0.9,2.03,4,5c1.16,1.11,3.19,3.06,6,4c4.83,1.61,7.16-1.37,11,0c2.13,0.76,3.42,2.39,6,7c2.26,4.04,4.51,10.02,8,17
		C403.5,459.88,405.5,464.88,405.5,464.88z"/>
	<path class="st5" d="M575,524.38c2.43,2.59,6.64,6.28,10,11c3.63,5.1,11.98,17.05,16,34c2.15,9.07,2.1,15.71,2,29
		c-0.07,9.1-0.15,19.94-3,34c-2.35,11.61-5.4,25.88-16,40c-1.96,2.61-4.75,5.65-6,7l-1,37c8.78-7.71,23.51-21.73,34-41
		c2.5-4.59,11.65-21.97,16-47c1.82-10.49,5.45-32.62-1-60c-0.98-4.14-5.54-22.69-18-43c-1.52-2.47-7.74-12.46-18-24
		c-5.57-6.27-12.79-12.26-17-16L575,524.38z"/>
</g>
<g id="Layer_2">
	<rect x="476.5" y="442.41" class="st6" width="74.59" height="266.52"/>
	<text transform="matrix(4.489659e-11 -1 1 4.489659e-11 530.4758 708.9346)" class="st7 st8 st9">Hubway</text>
	<rect x="1384.47" y="177.72" class="st6" width="108.65" height="568.41"/>
	<text transform="matrix(4.489659e-11 -1 1 4.489659e-11 1434.9385 746.1348)"><tspan x="0" y="0" class="st10 st8 st11">BLUE</tspan><tspan x="170.71" y="0" class="st12 st8 st11">bikes</tspan></text>
</g>
<g id="Layer_4">
	<g>
		<g>
			<line class="st13" x1="773" y1="557" x2="974.97" y2="557"/>
			<g>
				<polygon class="st14" points="966.83,496.26 966.83,617.74 1027.55,557 				"/>
			</g>
		</g>
	</g>
	<circle class="st15" cx="1391.5" cy="529" r="7"/>
</g>
</svg>
